<svg width="9" height="16" viewBox="0 0 9 16" fill="none" xmlns="http://www.w3.org/2000/svg">
<path d="M2.00001 15C1.76635 15.0005 1.53992 14.9191 1.36 14.77C1.25875 14.6861 1.17504 14.583 1.11369 14.4666C1.05234 14.3503 1.01454 14.223 1.00247 14.092C0.990393 13.961 1.00427 13.8289 1.04332 13.7033C1.08236 13.5777 1.1458 13.4611 1.23 13.36L5.71001 8L1.39001 2.63C1.30694 2.52771 1.24491 2.41002 1.20748 2.28368C1.17004 2.15734 1.15795 2.02485 1.17189 1.89382C1.18583 1.76279 1.22553 1.63581 1.2887 1.52017C1.35187 1.40454 1.43728 1.30252 1.54001 1.22C1.64347 1.12897 1.76464 1.0603 1.8959 1.01831C2.02716 0.976319 2.16569 0.961916 2.30278 0.976001C2.43987 0.990085 2.57257 1.03236 2.69256 1.10016C2.81254 1.16796 2.91721 1.25983 3.00001 1.37L7.83001 7.37C7.97709 7.54893 8.05749 7.77338 8.05749 8.005C8.05749 8.23663 7.97709 8.46107 7.83001 8.64L2.83001 14.64C2.72969 14.761 2.60225 14.8567 2.45804 14.9192C2.31383 14.9818 2.15691 15.0095 2.00001 15Z" fill="white"/>
</svg>
